<?xml version="1.0" standalone="no"?><!-- Generator: Gravit.io --><svg xmlns="http://www.w3.org/2000/svg" xmlns:xlink="http://www.w3.org/1999/xlink" style="isolation:isolate" viewBox="0 0 200 200" width="200" height="200"><defs><clipPath id="_clipPath_N4eFaHdjjj20GfCM9vkfzMlaNQbtQz63"><rect width="200" height="200"/></clipPath></defs><g clip-path="url(#_clipPath_N4eFaHdjjj20GfCM9vkfzMlaNQbtQz63)"><g id="Group"><g id="Group"><rect x="9.71" y="109.981" width="2.168" height="49.867" transform="matrix(1,0,0,1,0,0)" fill="rgb(126,103,99)"/><rect x="9.71" y="155.512" width="9.757" height="4.336" transform="matrix(1,0,0,1,0,0)" fill="rgb(126,103,99)"/><path d=" M 14.589 109.439 C 14.589 107.344 12.888 105.644 10.794 105.644 C 8.7 105.644 7 107.344 7 109.439 C 7 111.533 8.7 113.233 10.794 113.233 C 12.888 113.233 14.589 111.533 14.589 109.439 Z " fill="rgb(126,103,99)"/></g><g id="Group"><rect x="182.62" y="109.981" width="2.168" height="49.867" transform="matrix(1,0,0,1,0,0)" fill="rgb(126,103,99)"/><rect x="175.032" y="155.512" width="9.757" height="4.336" transform="matrix(1,0,0,1,0,0)" fill="rgb(126,103,99)"/><path d=" M 179.91 109.439 C 179.91 107.344 181.61 105.644 183.704 105.644 C 185.798 105.644 187.499 107.344 187.499 109.439 C 187.499 111.533 185.798 113.233 183.704 113.233 C 181.61 113.233 179.91 111.533 179.91 109.439 Z " fill="rgb(126,103,99)"/></g><path d="M 32.476 137.082 L 32.476 137.082 C 41.151 137.082 48.195 144.126 48.195 152.802 L 48.195 163.184 C 48.195 171.86 41.151 178.903 32.476 178.903 L 32.476 178.903 C 23.8 178.903 16.757 171.86 16.757 163.184 L 16.757 152.802 C 16.757 144.126 23.8 137.082 32.476 137.082 Z" style="stroke:none;fill:#685451;stroke-miterlimit:10;"/><path d="M 160.683 137.082 L 160.683 137.082 C 169.359 137.082 176.402 144.126 176.402 152.802 L 176.402 163.184 C 176.402 171.86 169.359 178.903 160.683 178.903 L 160.683 178.903 C 152.008 178.903 144.964 171.86 144.964 163.184 L 144.964 152.802 C 144.964 144.126 152.008 137.082 160.683 137.082 Z" style="stroke:none;fill:#685451;stroke-miterlimit:10;"/><path d=" M 27.597 101.308 Q 65.921 72.038 96.978 72.038 Q 128.036 72.038 166.359 101.308 L 162.023 189.118 Q 120.9 200.154 96.978 199.959 Q 74.199 199.773 35.186 189.118 L 27.597 101.308 Z " fill="rgb(126,103,99)"/><path d=" M 41.69 146.297 C 41.69 134.63 51.163 125.158 62.83 125.158 C 74.497 125.158 83.969 134.63 83.969 146.297 C 83.969 157.964 74.497 167.437 62.83 167.437 C 51.163 167.437 41.69 157.964 41.69 146.297 Z " fill="rgb(90,39,38)"/><path d=" M 59.127 146.297 C 59.127 144.253 60.786 142.594 62.83 142.594 C 64.874 142.594 66.533 144.253 66.533 146.297 C 66.533 148.341 64.874 150 62.83 150 C 60.786 150 59.127 148.341 59.127 146.297 Z " fill="rgb(251,178,75)"/><path d=" M 114.61 146.297 C 114.61 134.63 124.082 125.158 135.749 125.158 C 147.417 125.158 156.889 134.63 156.889 146.297 C 156.889 157.964 147.417 167.437 135.749 167.437 C 124.082 167.437 114.61 157.964 114.61 146.297 Z " fill="rgb(90,39,38)"/><path d=" M 118.047 146.297 C 118.047 136.527 125.979 128.594 135.749 128.594 C 145.52 128.594 153.452 136.527 153.452 146.297 C 153.452 156.068 145.52 164 135.749 164 C 125.979 164 118.047 156.068 118.047 146.297 Z " fill="rgb(251,178,75)"/><path d=" M 81.801 198.899 Q 80.202 198.706 78.549 198.479 L 78.549 184.782 L 81.801 184.782 L 81.801 198.899 Z " fill="rgb(90,39,38)"/><path d=" M 89.39 199.64 Q 87.795 199.512 86.138 199.343 L 86.138 181.61 L 89.39 181.61 L 89.39 199.64 Z " fill="rgb(90,39,38)"/><path d=" M 96.978 200 Q 95.39 199.97 93.726 199.891 L 93.726 175.08 L 96.978 175.08 L 96.978 200 Z " fill="rgb(90,39,38)"/><path d=" M 103.483 199.819 Q 101.823 199.913 100.231 199.962 L 100.231 175.08 L 103.483 175.08 L 103.483 199.819 Z " fill="rgb(90,39,38)"/><path d=" M 112.155 199.113 Q 110.502 199.297 108.903 199.444 L 108.903 178.903 L 112.155 178.903 L 112.155 199.113 Z " fill="rgb(90,39,38)"/><path d=" M 119.744 198.194 Q 118.093 198.431 116.492 198.636 L 116.492 182.614 L 119.744 182.614 L 119.744 198.194 Z " fill="rgb(90,39,38)"/></g></g></svg>